# xmcd
#
# Track frame offsets:
#	150
#	13198
#	27925
#	43605
#	55178
#	67312
#	78748
#	90558
#	120581
#	131879
#	143889
#	156819
#	169697
#	184270
#	194086
#	207344
#	218038
#	228458
#	241984
#	252846
#	267304
#	277180
#	289826
#	302564
#	317600
#
# Disc length: 4422 seconds
#
# Revision: 2
# Processed by: cddbd v1.5.2PL0 Copyright (c) Steve Scherf et al.
# Submitted via: audiograbber 1.83.01
#
DISCID=80114419
DTITLE=Various Artist - Legends Of Acoustic Guitar - Laid Back Licks and Playful Picks -
DTITLE=CD1
DYEAR=2013
DGENRE=Blues
TTITLE0=Robert Johnson - Ramblin' On My Mind
TTITLE1=Lonnie Johnson - Guitar Blues
TTITLE2=Son House - Death Letter Blues
TTITLE3=Bob Dylan - Baby, Let Me Follow You Down
TTITLE4=Bukka White - Parchman Farm Blues
TTITLE5=Luiz Bonfá - Duvida
TTITLE6=Diango Reinhardt - Minor Swing
TTITLE7=Eric von Schmidt and Rolf Cahn - Frankie and Albert
TTITLE8=Blind Willie McTell - Statesboro Blues
TTITLE9=Brownie McGhee - Key To The Highway
TTITLE10=Charlie Byrd - Moonlight In Vermont
TTITLE11=Big Bill Broonzy - How You Want It Done
TTITLE12=Frank Hutchison - Logan Country Blues
TTITLE13=Pete Seeger - The Mexican Blues
TTITLE14=Jimmie Rodgers - T.B. Blues
TTITLE15=John Cali and Tony Gottuso - Hittin' On All Six
TTITLE16=Harry McClintock - Big Rock Candy Mountain
TTITLE17=Sylvester Weaver - Guitar Rag
TTITLE18=Sarane Ferret - Deux Guitares
TTITLE19=Barbecue Bob - Goin' Up The Country
TTITLE20=Carl Kress and Dick McDonough - Chicken A La Swing
TTITLE21=Tommy McClennan - Bottle It Up And Go
TTITLE22=The South Georgia Highballers - Blue Grass Twist
TTITLE23=Blind Willie Johnson - Dark Was The Night (Cold Was The Ground)
TTITLE24=Muddy Waters - I Be's Troubled
EXTD=
EXTT0=
EXTT1=
EXTT2=
EXTT3=
EXTT4=
EXTT5=
EXTT6=
EXTT7=
EXTT8=
EXTT9=
EXTT10=
EXTT11=
EXTT12=
EXTT13=
EXTT14=
EXTT15=
EXTT16=
EXTT17=
EXTT18=
EXTT19=
EXTT20=
EXTT21=
EXTT22=
EXTT23=
EXTT24=
PLAYORDER=
